<svg width="100" height="50" viewBox="0 0 100 50" fill="none" xmlns="http://www.w3.org/2000/svg">
<path d="M25.5336 49.832C20.4136 49.832 15.9976 48.808 12.2856 46.76C8.61622 44.6693 5.80022 41.768 3.83755 38.056C1.87489 34.344 0.893555 29.992 0.893555 25C0.893555 20.008 1.87489 15.656 3.83755 11.944C5.80022 8.23197 8.61622 5.35197 12.2856 3.30397C15.9976 1.2133 20.4136 0.167969 25.5336 0.167969C30.6536 0.167969 35.0482 1.2133 38.7176 3.30397C42.3869 5.35197 45.2029 8.23197 47.1656 11.944C49.1282 15.656 50.1096 20.008 50.1096 25C50.1096 29.9493 49.1282 34.3013 47.1656 38.056C45.2029 41.768 42.3869 44.6693 38.7176 46.76C35.0482 48.808 30.6536 49.832 25.5336 49.832ZM25.5336 44.712C31.3362 44.712 35.8589 42.984 39.1016 39.528C42.3442 36.072 43.9656 31.2293 43.9656 25C43.9656 18.7706 42.3442 13.928 39.1016 10.472C35.8589 6.9733 31.3362 5.22397 25.5336 5.22397C19.6882 5.22397 15.1442 6.9733 11.9016 10.472C8.65889 13.928 7.03755 18.7706 7.03755 25C7.03755 31.2293 8.65889 36.072 11.9016 39.528C15.1442 42.984 19.6882 44.712 25.5336 44.712Z" fill="white"/>
<path d="M61.6906 0.999966H95.4826V5.99197H63.8666L66.3626 4.13597L63.6746 25.832L61.6266 25.896C62.6932 24.36 64.1012 22.952 65.8506 21.672C67.6426 20.3493 69.7332 19.2826 72.1226 18.472C74.5119 17.6613 77.1359 17.256 79.9946 17.256C84.2186 17.256 87.7599 17.9813 90.6186 19.432C93.4772 20.8826 95.6319 22.824 97.0826 25.256C98.5759 27.688 99.3226 30.4186 99.3226 33.448C99.3226 36.648 98.4479 39.4853 96.6986 41.96C94.9492 44.392 92.4959 46.312 89.3386 47.72C86.1812 49.128 82.4692 49.832 78.2026 49.832C73.8506 49.832 70.0959 49.192 66.9386 47.912C63.7812 46.5893 61.2639 44.8186 59.3866 42.6C57.5519 40.3813 56.3786 37.8853 55.8666 35.112H61.9466C62.6292 38.056 64.3572 40.4026 67.1306 42.152C69.9466 43.9013 73.6372 44.776 78.2026 44.776C81.2319 44.776 83.8559 44.3066 86.0746 43.368C88.3359 42.4293 90.0852 41.128 91.3226 39.464C92.6026 37.7573 93.2426 35.752 93.2426 33.448C93.2426 31.1866 92.6879 29.224 91.5786 27.56C90.4692 25.8533 88.8692 24.5306 86.7786 23.592C84.7306 22.6533 82.2132 22.184 79.2266 22.184C76.6239 22.184 74.2772 22.5466 72.1866 23.272C70.0959 23.9546 68.2826 24.8293 66.7466 25.896C65.2105 26.9626 63.9519 28.0933 62.9706 29.288H58.2346L61.6906 0.999966Z" fill="white"/>
</svg>
