<svg width="102" height="50" viewBox="0 0 102 50" fill="none" xmlns="http://www.w3.org/2000/svg">
<path d="M25.5961 49.832C20.4761 49.832 16.0601 48.808 12.3481 46.76C8.67872 44.6693 5.86272 41.768 3.90005 38.056C1.93739 34.344 0.956055 29.992 0.956055 25C0.956055 20.008 1.93739 15.656 3.90005 11.944C5.86272 8.23197 8.67872 5.35197 12.3481 3.30397C16.0601 1.2133 20.4761 0.167969 25.5961 0.167969C30.7161 0.167969 35.1107 1.2133 38.7801 3.30397C42.4494 5.35197 45.2654 8.23197 47.2281 11.944C49.1907 15.656 50.1721 20.008 50.1721 25C50.1721 29.9493 49.1907 34.3013 47.2281 38.056C45.2654 41.768 42.4494 44.6693 38.7801 46.76C35.1107 48.808 30.7161 49.832 25.5961 49.832ZM25.5961 44.712C31.3987 44.712 35.9214 42.984 39.1641 39.528C42.4067 36.072 44.0281 31.2293 44.0281 25C44.0281 18.7706 42.4067 13.928 39.1641 10.472C35.9214 6.9733 31.3987 5.22397 25.5961 5.22397C19.7507 5.22397 15.2067 6.9733 11.9641 10.472C8.72139 13.928 7.10005 18.7706 7.10005 25C7.10005 31.2293 8.72139 36.072 11.9641 39.528C15.2067 42.984 19.7507 44.712 25.5961 44.712Z" fill="white"/>
<path d="M92.1531 0.999966V49H86.1371V3.36797H89.0171L60.2811 35.496L60.2171 33.256H101.497V38.248H55.0971V33.832L84.5371 0.999966H92.1531Z" fill="white"/>
</svg>
