<svg width="75" height="50" viewBox="0 0 75 50" fill="none" xmlns="http://www.w3.org/2000/svg">
<path d="M25.4711 49.832C20.3511 49.832 15.9351 48.808 12.2231 46.76C8.55372 44.6693 5.73772 41.768 3.77505 38.056C1.81239 34.344 0.831055 29.992 0.831055 25C0.831055 20.008 1.81239 15.656 3.77505 11.944C5.73772 8.23197 8.55372 5.35197 12.2231 3.30397C15.9351 1.2133 20.3511 0.167969 25.4711 0.167969C30.5911 0.167969 34.9857 1.2133 38.6551 3.30397C42.3244 5.35197 45.1404 8.23197 47.1031 11.944C49.0657 15.656 50.0471 20.008 50.0471 25C50.0471 29.9493 49.0657 34.3013 47.1031 38.056C45.1404 41.768 42.3244 44.6693 38.6551 46.76C34.9857 48.808 30.5911 49.832 25.4711 49.832ZM25.4711 44.712C31.2737 44.712 35.7964 42.984 39.0391 39.528C42.2817 36.072 43.9031 31.2293 43.9031 25C43.9031 18.7706 42.2817 13.928 39.0391 10.472C35.7964 6.9733 31.2737 5.22397 25.4711 5.22397C19.6257 5.22397 15.0817 6.9733 11.8391 10.472C8.59639 13.928 6.97505 18.7706 6.97505 25C6.97505 31.2293 8.59639 36.072 11.8391 39.528C15.0817 42.984 19.6257 44.712 25.4711 44.712Z" fill="white"/>
<path d="M74.8986 0.999966V49H68.8826V2.47197L72.6586 5.73597L52.8826 9.25597V4.32797L70.3546 0.999966H74.8986Z" fill="white"/>
</svg>
