<svg width="62" height="31" viewBox="0 0 62 31" fill="none" xmlns="http://www.w3.org/2000/svg">
<path d="M15.3707 31C12.1768 31 9.42205 30.3608 7.10646 29.0825C4.81749 27.7775 3.06084 25.9665 1.8365 23.6495C0.612167 21.3325 0 18.616 0 15.5C0 12.384 0.612167 9.66753 1.8365 7.35051C3.06084 5.0335 4.81749 3.23582 7.10646 1.95747C9.42205 0.652491 12.1768 0 15.3707 0C18.5646 0 21.3061 0.652491 23.595 1.95747C25.884 3.23582 27.6407 5.0335 28.865 7.35051C30.0893 9.66753 30.7015 12.384 30.7015 15.5C30.7015 18.5893 30.0893 21.3058 28.865 23.6495C27.6407 25.9665 25.884 27.7775 23.595 29.0825C21.3061 30.3608 18.5646 31 15.3707 31ZM15.3707 27.8041C18.9905 27.8041 21.8118 26.7255 23.8346 24.5683C25.8574 22.4111 26.8688 19.3883 26.8688 15.5C26.8688 11.6117 25.8574 8.58892 23.8346 6.4317C21.8118 4.24785 18.9905 3.15593 15.3707 3.15593C11.7243 3.15593 8.88973 4.24785 6.86692 6.4317C4.84411 8.58892 3.8327 11.6117 3.8327 15.5C3.8327 19.3883 4.84411 22.4111 6.86692 24.5683C8.88973 26.7255 11.7243 27.8041 15.3707 27.8041Z" fill="white" fill-opacity="0.6"/>
<path d="M35.3308 9.50773C35.5437 7.69673 36.2091 6.07216 37.327 4.63402C38.4715 3.19587 40.0418 2.064 42.038 1.2384C44.0342 0.4128 46.403 0 49.1445 0C51.6464 0 53.8023 0.332903 55.6122 0.99871C57.4221 1.66452 58.8194 2.59665 59.8042 3.7951C60.8156 4.99356 61.3213 6.40507 61.3213 8.02964C61.3213 9.41452 60.9088 10.6662 60.0837 11.7848C59.2586 12.8767 58.0475 13.7423 56.4506 14.3814C54.8536 15.0206 52.8973 15.3402 50.5818 15.3402V14.6211C52.9506 14.5412 54.9867 14.7942 56.6901 15.3802C58.3935 15.9394 59.6977 16.7783 60.6027 17.8969C61.5342 18.9888 62 20.3204 62 21.8918C62 23.6761 61.481 25.2607 60.443 26.6456C59.4049 28.0039 57.8878 29.0692 55.8916 29.8415C53.9221 30.6138 51.5 31 48.6255 31C45.8308 31 43.3954 30.5872 41.3194 29.7616C39.2434 28.936 37.6198 27.7775 36.4487 26.2861C35.2776 24.7947 34.6122 23.0636 34.4525 21.0928H38.2453C38.5114 23.2234 39.5228 24.8879 41.2795 26.0863C43.0627 27.2582 45.5114 27.8441 48.6255 27.8441C51.7129 27.8441 54.0685 27.3114 55.692 26.2461C57.3422 25.1542 58.1673 23.6362 58.1673 21.692C58.1673 20.5735 57.8878 19.628 57.3289 18.8557C56.77 18.0833 55.865 17.4974 54.6141 17.0979C53.3631 16.6718 51.7262 16.4588 49.7034 16.4588H44.1141V13.5425H49.7034C52.365 13.5425 54.3213 13.0631 55.5723 12.1044C56.8498 11.119 57.4886 9.90722 57.4886 8.46907C57.4886 6.73797 56.7434 5.41967 55.2529 4.51417C53.7624 3.60868 51.6597 3.15593 48.9449 3.15593C46.1502 3.15593 43.8878 3.71521 42.1578 4.83376C40.4544 5.92569 39.443 7.48368 39.1236 9.50773H35.3308Z" fill="white" fill-opacity="0.6"/>
</svg>
