<svg width="64" height="31" viewBox="0 0 64 31" fill="none" xmlns="http://www.w3.org/2000/svg">
<path d="M15.9397 31C12.7314 31 9.96432 30.3608 7.63834 29.0825C5.3391 27.7775 3.57457 25.9665 2.34474 23.6495C1.11491 21.3325 0.5 18.616 0.5 15.5C0.5 12.384 1.11491 9.66753 2.34474 7.35051C3.57457 5.0335 5.3391 3.23582 7.63834 1.95747C9.96432 0.652491 12.7314 0 15.9397 0C19.1479 0 21.9017 0.652491 24.2009 1.95747C26.5001 3.23582 28.2647 5.0335 29.4945 7.35051C30.7243 9.66753 31.3392 12.384 31.3392 15.5C31.3392 18.5893 30.7243 21.3058 29.4945 23.6495C28.2647 25.9665 26.5001 27.7775 24.2009 29.0825C21.9017 30.3608 19.1479 31 15.9397 31ZM15.9397 27.8041C19.5757 27.8041 22.4096 26.7255 24.4415 24.5683C26.4734 22.4111 27.4894 19.3883 27.4894 15.5C27.4894 11.6117 26.4734 8.58892 24.4415 6.4317C22.4096 4.24785 19.5757 3.15593 15.9397 3.15593C12.2769 3.15593 9.42961 4.24785 7.39772 6.4317C5.36584 8.58892 4.34989 11.6117 4.34989 15.5C4.34989 19.3883 5.36584 22.4111 7.39772 24.5683C9.42961 26.7255 12.2769 27.8041 15.9397 27.8041Z" fill="white" fill-opacity="0.6"/>
<path d="M57.645 0.519328V30.4807H53.8753V1.99742H55.6799L37.6736 22.0515L37.6335 20.6533H63.5V23.7693H34.4253V21.0129L52.8727 0.519328H57.645Z" fill="white" fill-opacity="0.6"/>
</svg>
