<svg width="62" height="31" viewBox="0 0 62 31" fill="none" xmlns="http://www.w3.org/2000/svg">
<path d="M15.7703 31C12.5972 31 9.86049 30.3608 7.56003 29.0825C5.28602 27.7775 3.54084 25.9665 2.3245 23.6495C1.10817 21.3325 0.5 18.616 0.5 15.5C0.5 12.384 1.10817 9.66753 2.3245 7.35051C3.54084 5.0335 5.28602 3.23582 7.56003 1.95747C9.86049 0.652491 12.5972 0 15.7703 0C18.9433 0 21.6669 0.652491 23.9409 1.95747C26.2149 3.23582 27.9601 5.0335 29.1764 7.35051C30.3928 9.66753 31.0009 12.384 31.0009 15.5C31.0009 18.5893 30.3928 21.3058 29.1764 23.6495C27.9601 25.9665 26.2149 27.7775 23.9409 29.0825C21.6669 30.3608 18.9433 31 15.7703 31ZM15.7703 27.8041C19.3664 27.8041 22.1693 26.7255 24.1789 24.5683C26.1885 22.4111 27.1933 19.3883 27.1933 15.5C27.1933 11.6117 26.1885 8.58892 24.1789 6.4317C22.1693 4.24785 19.3664 3.15593 15.7703 3.15593C12.1477 3.15593 9.33165 4.24785 7.32206 6.4317C5.31246 8.58892 4.30766 11.6117 4.30766 15.5C4.30766 19.3883 5.31246 22.4111 7.32206 24.5683C9.33165 26.7255 12.1477 27.8041 15.7703 27.8041Z" fill="white" fill-opacity="0.6"/>
<path d="M38.1781 0.519328H59.1202V3.63531H39.5266L41.0735 2.4768L39.4076 16.0193L38.1384 16.0593C38.7995 15.1005 39.6721 14.2216 40.7562 13.4227C41.8668 12.5971 43.1624 11.9313 44.6432 11.4253C46.1239 10.9192 47.7501 10.6662 49.5217 10.6662C52.1395 10.6662 54.3342 11.119 56.1058 12.0245C57.8774 12.93 59.2128 14.1418 60.1118 15.6598C61.0373 17.1778 61.5 18.8823 61.5 20.7732C61.5 22.7706 60.9579 24.5417 59.8738 26.0863C58.7897 27.6044 57.2693 28.8028 55.3126 29.6817C53.3558 30.5606 51.0554 31 48.4112 31C45.7141 31 43.3872 30.6005 41.4305 29.8015C39.4738 28.9759 37.9137 27.8707 36.7502 26.4858C35.6132 25.1009 34.8861 23.543 34.5687 21.8119H38.3367C38.7598 23.6495 39.8307 25.1143 41.5495 26.2062C43.2946 27.2981 45.5819 27.8441 48.4112 27.8441C50.2886 27.8441 51.9147 27.5511 53.2897 26.9652C54.6912 26.3793 55.7753 25.567 56.5421 24.5283C57.3354 23.4631 57.732 22.2113 57.732 20.7732C57.732 19.3617 57.3883 18.1366 56.7008 17.0979C56.0133 16.0326 55.0217 15.207 53.726 14.6211C52.4568 14.0352 50.8967 13.7423 49.0458 13.7423C47.4328 13.7423 45.9785 13.9686 44.6828 14.4214C43.3872 14.8475 42.2634 15.3935 41.3115 16.0593C40.3596 16.7251 39.5795 17.4308 38.9714 18.1765H36.0363L38.1781 0.519328Z" fill="white" fill-opacity="0.6"/>
</svg>
