<svg width="62" height="31" viewBox="0 0 62 31" fill="none" xmlns="http://www.w3.org/2000/svg">
<path d="M15.4204 31C12.2161 31 9.45248 30.3608 7.12942 29.0825C4.83305 27.7775 3.07072 25.9665 1.84243 23.6495C0.614144 21.3325 0 18.616 0 15.5C0 12.384 0.614144 9.66753 1.84243 7.35051C3.07072 5.0335 4.83305 3.23582 7.12942 1.95747C9.45248 0.652491 12.2161 0 15.4204 0C18.6246 0 21.3749 0.652491 23.6713 1.95747C25.9676 3.23582 27.73 5.0335 28.9582 7.35051C30.1865 9.66753 30.8007 12.384 30.8007 15.5C30.8007 18.5893 30.1865 21.3058 28.9582 23.6495C27.73 25.9665 25.9676 27.7775 23.6713 29.0825C21.3749 30.3608 18.6246 31 15.4204 31ZM15.4204 27.8041C19.0518 27.8041 21.8822 26.7255 23.9116 24.5683C25.9409 22.4111 26.9556 19.3883 26.9556 15.5C26.9556 11.6117 25.9409 8.58892 23.9116 6.4317C21.8822 4.24785 19.0518 3.15593 15.4204 3.15593C11.7622 3.15593 8.91844 4.24785 6.8891 6.4317C4.85975 8.58892 3.84508 11.6117 3.84508 15.5C3.84508 19.3883 4.85975 22.4111 6.8891 24.5683C8.91844 26.7255 11.7622 27.8041 15.4204 27.8041Z" fill="white" fill-opacity="0.6"/>
<path d="M34.8041 10.5863C34.9643 8.45575 35.6452 6.60481 36.8468 5.0335C38.0751 3.43557 39.6905 2.19716 41.6932 1.3183C43.7225 0.439433 46.0189 0 48.5823 0C51.0656 0 53.2284 0.386168 55.0709 1.1585C56.94 1.93084 58.3952 3.02277 59.4366 4.43428C60.478 5.84579 60.9987 7.48368 60.9987 9.34794C60.9987 10.7861 60.6516 12.131 59.9573 13.3827C59.2898 14.6078 58.1549 15.8729 56.5528 17.1778C54.9774 18.4828 52.8279 19.9742 50.1043 21.6521L39.1698 28.4433L38.6892 27.2848H62V30.4807H34.9242V27.6044L47.621 19.6147C49.9708 18.1233 51.8399 16.8316 53.2284 15.7397C54.6436 14.6211 55.6583 13.5692 56.2724 12.5838C56.8866 11.5984 57.1937 10.5597 57.1937 9.46778C57.1937 8.21606 56.8465 7.12414 56.1523 6.19201C55.4847 5.23325 54.4968 4.48754 53.1884 3.9549C51.9067 3.42225 50.3446 3.15593 48.5022 3.15593C46.366 3.15593 44.577 3.48883 43.1351 4.15464C41.7199 4.79381 40.6385 5.67268 39.8908 6.79123C39.1699 7.90979 38.7426 9.17483 38.6091 10.5863H34.8041Z" fill="white" fill-opacity="0.6"/>
</svg>
