<svg width="46" height="31" viewBox="0 0 46 31" fill="none" xmlns="http://www.w3.org/2000/svg">
<path d="M15.3028 31C12.123 31 9.38042 30.3608 7.07506 29.0825C4.7962 27.7775 3.04731 25.9665 1.82839 23.6495C0.609462 21.3325 0 18.616 0 15.5C0 12.384 0.609462 9.66753 1.82839 7.35051C3.04731 5.0335 4.7962 3.23582 7.07506 1.95747C9.38042 0.652491 12.123 0 15.3028 0C18.4826 0 21.2119 0.652491 23.4908 1.95747C25.7696 3.23582 27.5185 5.0335 28.7375 7.35051C29.9564 9.66753 30.5659 12.384 30.5659 15.5C30.5659 18.5893 29.9564 21.3058 28.7375 23.6495C27.5185 25.9665 25.7696 27.7775 23.4908 29.0825C21.2119 30.3608 18.4826 31 15.3028 31ZM15.3028 27.8041C18.9066 27.8041 21.7154 26.7255 23.7293 24.5683C25.7432 22.4111 26.7501 19.3883 26.7501 15.5C26.7501 11.6117 25.7432 8.58892 23.7293 6.4317C21.7154 4.24785 18.9066 3.15593 15.3028 3.15593C11.6725 3.15593 8.85045 4.24785 6.83658 6.4317C4.8227 8.58892 3.81576 11.6117 3.81576 15.5C3.81576 19.3883 4.8227 22.4111 6.83658 24.5683C8.85045 26.7255 11.6725 27.8041 15.3028 27.8041Z" fill="white" fill-opacity="0.6"/>
<path d="M46 0.519328V30.4807H42.2637V1.43814L44.6088 3.47551L32.3269 5.67268V2.59665L43.1779 0.519328H46Z" fill="white" fill-opacity="0.6"/>
</svg>
