<svg width="100" height="50" viewBox="0 0 100 50" fill="none" xmlns="http://www.w3.org/2000/svg">
<path d="M24.6586 49.832C19.5386 49.832 15.1226 48.808 11.4106 46.76C7.74122 44.6693 4.92522 41.768 2.96255 38.056C0.999888 34.344 0.0185547 29.992 0.0185547 25C0.0185547 20.008 0.999888 15.656 2.96255 11.944C4.92522 8.23197 7.74122 5.35197 11.4106 3.30397C15.1226 1.2133 19.5386 0.167969 24.6586 0.167969C29.7786 0.167969 34.1732 1.2133 37.8426 3.30397C41.5119 5.35197 44.3279 8.23197 46.2906 11.944C48.2532 15.656 49.2346 20.008 49.2346 25C49.2346 29.9493 48.2532 34.3013 46.2906 38.056C44.3279 41.768 41.5119 44.6693 37.8426 46.76C34.1732 48.808 29.7786 49.832 24.6586 49.832ZM24.6586 44.712C30.4612 44.712 34.9839 42.984 38.2266 39.528C41.4692 36.072 43.0906 31.2293 43.0906 25C43.0906 18.7706 41.4692 13.928 38.2266 10.472C34.9839 6.9733 30.4612 5.22397 24.6586 5.22397C18.8132 5.22397 14.2692 6.9733 11.0266 10.472C7.78389 13.928 6.16255 18.7706 6.16255 25C6.16255 31.2293 7.78389 36.072 11.0266 39.528C14.2692 42.984 18.8132 44.712 24.6586 44.712Z" fill="white"/>
<path d="M56.6556 15.4C56.9969 12.4986 58.0636 9.89597 59.8556 7.59197C61.6902 5.28797 64.2076 3.47463 67.4076 2.15197C70.6076 0.829301 74.4049 0.167969 78.7996 0.167969C82.8102 0.167969 86.2662 0.701302 89.1676 1.76797C92.0689 2.83463 94.3089 4.32797 95.8876 6.24797C97.5089 8.16797 98.3196 10.4293 98.3196 13.032C98.3196 15.2506 97.6582 17.256 96.3356 19.048C95.0129 20.7973 93.0716 22.184 90.5116 23.208C87.9516 24.232 84.8156 24.744 81.1036 24.744V23.592C84.9009 23.464 88.1649 23.8693 90.8956 24.808C93.6262 25.704 95.7169 27.048 97.1676 28.84C98.6609 30.5893 99.4076 32.7226 99.4076 35.24C99.4076 38.0986 98.5756 40.6373 96.9116 42.856C95.2476 45.032 92.8156 46.7386 89.6156 47.976C86.4582 49.2133 82.5756 49.832 77.9676 49.832C73.4875 49.832 69.5836 49.1706 66.2556 47.848C62.9276 46.5253 60.3249 44.6693 58.4476 42.28C56.5702 39.8906 55.5036 37.1173 55.2476 33.96H61.3276C61.7542 37.3733 63.3755 40.04 66.1916 41.96C69.0502 43.8373 72.9756 44.776 77.9676 44.776C82.9169 44.776 86.6929 43.9226 89.2956 42.216C91.9409 40.4666 93.2636 38.0346 93.2636 34.92C93.2636 33.128 92.8156 31.6133 91.9196 30.376C91.0236 29.1386 89.5729 28.2 87.5676 27.56C85.5622 26.8773 82.9382 26.536 79.6956 26.536H70.7356V21.864H79.6956C83.9622 21.864 87.0982 21.096 89.1036 19.56C91.1516 17.9813 92.1756 16.04 92.1756 13.736C92.1756 10.9626 90.9809 8.85063 88.5916 7.39997C86.2022 5.9493 82.8316 5.22397 78.4796 5.22397C73.9995 5.22397 70.3729 6.11997 67.5996 7.91197C64.8689 9.6613 63.2476 12.1573 62.7356 15.4H56.6556Z" fill="white"/>
</svg>
