<svg width="100" height="50" viewBox="0 0 100 50" fill="none" xmlns="http://www.w3.org/2000/svg">
<path d="M24.9086 49.832C19.7886 49.832 15.3726 48.808 11.6606 46.76C7.99122 44.6693 5.17522 41.768 3.21255 38.056C1.24989 34.344 0.268555 29.992 0.268555 25C0.268555 20.008 1.24989 15.656 3.21255 11.944C5.17522 8.23197 7.99122 5.35197 11.6606 3.30397C15.3726 1.2133 19.7886 0.167969 24.9086 0.167969C30.0286 0.167969 34.4232 1.2133 38.0926 3.30397C41.7619 5.35197 44.5779 8.23197 46.5406 11.944C48.5032 15.656 49.4846 20.008 49.4846 25C49.4846 29.9493 48.5032 34.3013 46.5406 38.056C44.5779 41.768 41.7619 44.6693 38.0926 46.76C34.4232 48.808 30.0286 49.832 24.9086 49.832ZM24.9086 44.712C30.7112 44.712 35.2339 42.984 38.4766 39.528C41.7192 36.072 43.3406 31.2293 43.3406 25C43.3406 18.7706 41.7192 13.928 38.4766 10.472C35.2339 6.9733 30.7112 5.22397 24.9086 5.22397C19.0632 5.22397 14.5192 6.9733 11.2766 10.472C8.03389 13.928 6.41255 18.7706 6.41255 25C6.41255 31.2293 8.03389 36.072 11.2766 39.528C14.5192 42.984 19.0632 44.712 24.9086 44.712Z" fill="white"/>
<path d="M55.8816 17.128C56.1376 13.7146 57.2256 10.7493 59.1456 8.23197C61.1082 5.67197 63.6896 3.68797 66.8896 2.27997C70.1322 0.871969 73.8016 0.167969 77.8976 0.167969C81.8656 0.167969 85.3216 0.786635 88.2656 2.02397C91.2522 3.2613 93.5776 5.01063 95.2416 7.27197C96.9056 9.5333 97.7376 12.1573 97.7376 15.144C97.7376 17.448 97.1829 19.6026 96.0736 21.608C95.0069 23.5706 93.1936 25.5973 90.6336 27.688C88.1162 29.7786 84.6815 32.168 80.3296 34.856L62.8576 45.736L62.0896 43.88H99.3376V49H56.0736V44.392L76.3616 31.592C80.1162 29.2026 83.1029 27.1333 85.3216 25.384C87.5829 23.592 89.2042 21.9066 90.1856 20.328C91.1669 18.7493 91.6576 17.0853 91.6576 15.336C91.6576 13.3306 91.1029 11.5813 89.9936 10.088C88.9269 8.55197 87.3482 7.3573 85.2576 6.50397C83.2096 5.65063 80.7136 5.22397 77.7696 5.22397C74.3562 5.22397 71.4976 5.7573 69.1936 6.82397C66.9322 7.84797 65.2042 9.25597 64.0096 11.048C62.8576 12.84 62.1749 14.8666 61.9616 17.128H55.8816Z" fill="white"/>
</svg>
